<?xml version="1.0" encoding="UTF-8"?>
<svg width="48px" height="34px" viewBox="0 0 48 34" version="1.1" xmlns="http://www.w3.org/2000/svg" xmlns:xlink="http://www.w3.org/1999/xlink">
    <!-- Generator: Sketch 61 (89581) - https://sketch.com -->
    <title>Overrides/Tab bar/Items/Home</title>
    <desc>Created with Sketch.</desc>
    <g id="Overrides/Tab-bar/Items/Home" stroke="none" stroke-width="1" fill="none" fill-rule="evenodd">
        <path d="M34.3533868,17.8324618 C34.0095849,17.8324618 33.7307453,18.1130321 33.7307453,18.4589679 L33.7307453,28.6206948 L27.0493868,28.6206948 L27.0493868,19.6140602 C27.0493868,19.2681245 26.7705472,18.9875542 26.4267453,18.9875542 L21.5493868,18.9875542 C21.2055849,18.9875542 20.9267453,19.2681245 20.9267453,19.6140602 L20.9267453,24.1698112 C20.9267453,24.515747 21.2055849,24.7963173 21.5493868,24.7963173 C21.8931887,24.7963173 22.1720283,24.515747 22.1720283,24.1698112 L22.1720283,20.2405663 L25.8041038,20.2405663 L25.8041038,28.6206948 L14.245283,28.6206948 L14.245283,13.2858112 L23.9879623,5.42953012 L33.9639245,13.4738675 C34.232283,13.6903253 34.6241321,13.6466787 34.8391509,13.376759 C35.0541698,13.1067349 35.011,12.7125582 34.7426415,12.4961004 L24.3773208,4.1376747 C24.1498491,3.95410843 23.8260755,3.95410843 23.5986038,4.1376747 L13.233283,12.4961004 C13.0858208,12.6150321 13,12.7947349 13,12.9849839 L13,29.2470964 C13,29.5930321 13.2787358,29.8736024 13.6226415,29.8736024 L34.3533868,29.8736024 C34.6972925,29.8736024 34.9760283,29.5930321 34.9760283,29.2470964 L34.9760283,18.4589679 C34.9760283,18.1129277 34.6972925,17.8324618 34.3533868,17.8324618 Z" id="Path" stroke="#3A3A3A" stroke-width="1.4" fill="#3A3A3A" fill-rule="nonzero"></path>
    </g>
</svg>