<?xml version="1.0" encoding="UTF-8"?>
<svg width="48px" height="34px" viewBox="0 0 48 34" version="1.1" xmlns="http://www.w3.org/2000/svg" xmlns:xlink="http://www.w3.org/1999/xlink">
    <!-- Generator: Sketch 61 (89581) - https://sketch.com -->
    <title>Overrides/Tab bar/Items/Profile - Active</title>
    <desc>Created with Sketch.</desc>
    <g id="Overrides/Tab-bar/Items/Profile---Active" stroke="none" stroke-width="1" fill="none" fill-rule="evenodd">
        <g id="avatar" transform="translate(13.000000, 4.000000)" fill="#3043C8" fill-rule="nonzero" stroke="#3043C8">
            <path d="M10.9036496,14.0066253 C10.9304136,14.0066253 10.9571776,14.0066253 10.9892944,14.0066253 C11,14.0066253 11.0107056,14.0066253 11.0214112,14.0066253 C11.0374696,14.0066253 11.0588808,14.0066253 11.0749392,14.0066253 C12.643309,13.9797101 13.9119221,13.4252588 14.8486618,12.3648033 C16.9094891,10.0285714 16.56691,6.02360248 16.5294404,5.64140787 C16.3956204,2.77225673 15.0467153,1.39958592 13.9333333,0.759006211 C13.1036496,0.279917184 12.1347932,0.0215320911 11.053528,0 L11.0160584,0 C11.0107056,0 11,0 10.9946472,0 L10.9625304,0 C10.3683698,0 9.20145985,0.0968944099 8.08272506,0.73747412 C6.95863747,1.37805383 5.58832117,2.75072464 5.45450122,5.64140787 C5.41703163,6.02360248 5.07445255,10.0285714 7.13527981,12.3648033 C8.06666667,13.4252588 9.33527981,13.9797101 10.9036496,14.0066253 Z M6.8836983,5.77598344 C6.8836983,5.75983437 6.88905109,5.7436853 6.88905109,5.73291925 C7.06569343,1.87329193 9.79026764,1.45879917 10.9571776,1.45879917 L10.9785888,1.45879917 C10.9892944,1.45879917 11.0053528,1.45879917 11.0214112,1.45879917 C12.4666667,1.49109731 14.923601,2.08322981 15.0895377,5.73291925 C15.0895377,5.74906832 15.0895377,5.76521739 15.0948905,5.77598344 C15.1002433,5.8136646 15.4749392,9.47412008 13.7727494,11.4012422 C13.0982968,12.1656315 12.1990268,12.5424431 11.0160584,12.5532091 C11.0053528,12.5532091 11,12.5532091 10.9892944,12.5532091 L10.9892944,12.5532091 C10.9785888,12.5532091 10.973236,12.5532091 10.9625304,12.5532091 C9.78491484,12.5424431 8.88029197,12.1656315 8.21119221,11.4012422 C6.51435523,9.48488613 6.8783455,5.80828157 6.8836983,5.77598344 Z" id="Shape"></path>
            <path d="M21.9892944,20.6492754 C21.9892944,20.6438923 21.9892944,20.6385093 21.9892944,20.6331263 C21.9892944,20.5900621 21.9839416,20.5469979 21.9839416,20.4985507 C21.9518248,19.4327122 21.8822384,16.9403727 19.5591241,16.1436853 C19.5430657,16.1383023 19.5216545,16.1329193 19.5055961,16.1275362 C17.0914842,15.5084886 16.0841849,15.1089027 16.0627737,15.0927536 C15.736253,14.8612836 15.286618,14.942029 15.0564477,15.2703934 C14.8262774,15.5987578 14.9065693,16.0509317 15.23309,16.2824017 C15.3240876,16.3469979 16.4545012,16.8380952 19.1201946,17.5271222 C20.3673966,17.973913 20.5065693,19.3142857 20.5440389,20.5416149 C20.5440389,20.5900621 20.5440389,20.6331263 20.5493917,20.6761905 C20.5547445,21.1606625 20.5226277,21.9089027 20.436983,22.3395445 C19.5698297,22.8347826 16.1708029,24.5465839 11,24.5465839 C5.85060827,24.5465839 2.43017032,22.8293996 1.55766423,22.3341615 C1.47201946,21.9035197 1.43454988,21.1552795 1.44525547,20.6708075 C1.44525547,20.6277433 1.45060827,20.5846791 1.45060827,20.5362319 C1.48807786,19.3089027 1.62725061,17.96853 2.87445255,17.5217391 C5.54014599,16.8327122 6.67055961,16.3362319 6.76155718,16.2770186 C7.08807786,16.0455487 7.16836983,15.5933747 6.93819951,15.2650104 C6.7080292,14.936646 6.25839416,14.8559006 5.93187348,15.0873706 C5.91046229,15.1035197 4.91386861,15.5031056 2.48905109,16.1221532 C2.4676399,16.1275362 2.45158151,16.1329193 2.43552311,16.1383023 C0.112408759,16.9403727 0.0428223844,19.4327122 0.0107055961,20.4931677 C0.0107055961,20.5416149 0.0107055961,20.5846791 0.00535279805,20.6277433 C0.00535279805,20.6331263 0.00535279805,20.6385093 0.00535279805,20.6438923 C-5.20417043e-16,20.9238095 -0.00535279805,22.3610766 0.278345499,23.0824017 C0.331873479,23.2223602 0.428223844,23.3407867 0.556690998,23.4215321 C0.717274939,23.5291925 4.56593674,25.994617 11.0053528,25.994617 C17.4447689,25.994617 21.2934307,23.5238095 21.4540146,23.4215321 C21.577129,23.3407867 21.6788321,23.2223602 21.7323601,23.0824017 C22,22.3664596 21.9946472,20.9291925 21.9892944,20.6492754 Z" id="Path"></path>
        </g>
    </g>
</svg>