<?xml version="1.0" encoding="UTF-8"?>
<svg width="48px" height="34px" viewBox="0 0 48 34" version="1.1" xmlns="http://www.w3.org/2000/svg" xmlns:xlink="http://www.w3.org/1999/xlink">
    <!-- Generator: Sketch 61 (89581) - https://sketch.com -->
    <title>Overrides/Tab bar/Items/Search</title>
    <desc>Created with Sketch.</desc>
    <g id="Overrides/Tab-bar/Items/Search" stroke="none" stroke-width="1" fill="none" fill-rule="evenodd">
        <path d="M36,14.84375 C36,16.5532227 35.5546868,18.2374268 34.7122171,19.7145386 C34.4556859,20.1642456 33.8832972,20.3208008 33.4334064,20.06427 C32.9836986,19.8077393 32.82696,19.2351685 33.0836743,18.7854614 C33.7648278,17.5910645 34.1249969,16.2280273 34.1249969,14.84375 C34.1249969,10.4497681 30.5502228,6.875 26.1562335,6.875 C21.7622442,6.875 18.1874702,10.4497681 18.1874702,14.84375 C18.1874702,19.2377319 21.7622442,22.8125 26.1562335,22.8125 C27.5236674,22.8125 28.8722415,22.4605713 30.0560203,21.7947998 C30.5073761,21.5410156 31.0790323,21.7012329 31.3328169,22.1524048 C31.5866015,22.6037598 31.4265671,23.1754151 30.9752113,23.4290161 C29.5114637,24.2524414 27.8450181,24.6875 26.1562335,24.6875 C23.7901407,24.6875 21.616492,23.8481445 19.9169042,22.4517823 L13.598107,28.7277222 C13.4153674,28.9091797 13.1764144,29 12.9374614,29 C12.6964942,29 12.455527,28.9077148 12.2722381,28.7231445 C11.9074914,28.3558349 11.9095055,27.762207 12.2768157,27.3972778 L18.5871901,21.1299439 C17.167571,19.423584 16.312467,17.2318115 16.312467,14.84375 C16.312467,9.41595458 20.728429,5 26.1562335,5 C31.584038,5 36,9.41595458 36,14.84375 Z" id="Path" stroke="#3A3A3A" fill="#3A3A3A" fill-rule="nonzero" transform="translate(24.000000, 17.000000) scale(-1, 1) translate(-24.000000, -17.000000) "></path>
    </g>
</svg>